<svg id="Слой_1" data-name="Слой 1" xmlns="http://www.w3.org/2000/svg" viewBox="0 0 395.36 258.28"><defs><style>.cls-1,.cls-3{fill:#1a171b;}.cls-1{opacity:0.3;}.cls-2{fill:#fff;}</style></defs><title>Логотип</title><ellipse class="cls-1" cx="202.79" cy="112.01" rx="103.81" ry="8.14"/><polygon points="247.72 106.19 257.87 106.19 257.87 101.2 255.93 99.89 252.18 99.89 248.34 92.24 255.51 75.18 251.98 70.71 251.98 67.26 239.17 66.68 240.55 97.54 247.72 106.19"/><path d="M148.43,56.11l-1.38-2L145.55,50l3,4.5.72,1L168.59,79l-4.48,13.13,25.28,30.34H202L202,118.3l-1.82-2.73h-5.66l-13.1-23.41L192.91,76l-3.56-11.66-5.62-10.11,0,0v0l-1.08-7.72,6.1,15,1.38,2.21,41.42,2.78,9.22,7.51,18,.82-2.68-21.84,3.67,21.89h.07v4.06l34.4,43.55h14.45v-5l-3.24-2.16H301L282.75,74.64l8-14.17.34-10.91.5,0h0l-.44-.24,5.77-10.73,7.67-3.2,6.64,1.1,8.42,10.16h2l1.49-1.38.29-1.14.19-.1a7.48,7.48,0,0,0,1.93-1.95,19,19,0,0,1-3.36.87l-.41.06-2.92-8.17,2.05-2.53.21,0c1.14-.11,6.88-.66,8-.24.92.34,1.19,2.25,1.25,3.84a9.58,9.58,0,0,0,.63-1.63l.13-.48,2.34.62,1.09-.4,1.11-3.73-1.12-3.84-.09-.32.3.06,2.51.52-1.52-1.46-.91-1.56-2.73-2.87-.66-2.53-2.24-2-1.55-2.07-6.27-3.79-12.31-2-5.72.7q2,.25,4.07.46l3,.3a24.41,24.41,0,0,1,3,.42,9.69,9.69,0,0,1,5,3.31,9.57,9.57,0,0,0-5-3.07,24.29,24.29,0,0,0-3-.29l-3-.18c-2-.12-4-.24-6-.46-.74-.09-1.48-.18-2.23-.34v1.18l-.39.09a10.76,10.76,0,0,0,.95,2.6,5.75,5.75,0,0,0,2.11,2.33,4.65,4.65,0,0,0,3,.52,12.21,12.21,0,0,1,3.42.09l-.26,1a11.51,11.51,0,0,0-3.13-.3,5.29,5.29,0,0,1-3.31-.85,6.12,6.12,0,0,1-2.06-2.64,10.88,10.88,0,0,1-.76-2.7l-11.09,2.6-7.8,2.24-11.26.58-9.1,4.85h-.12l-69,1.26-29.48,4.26-19.43,6.26L135,39.57l-15.72,27.1L109,89.27l-5.74,4.68-8.21,2.93-7.81.37-6.9-2.65L77.7,90l.87-3.82L83,81.76l8.61-2.88-3.57-2.67-6.94,3.21-6.35,5.43-.64,6.5,3.63,6.26,8.45,3.63,11.17-.11,8.82-3.24,6.12-4.16,14.22-27.25,10-11.91h0l2.24-1.92-1.47,2.56h0L128.41,65.8,127,69.23,124,73.57,113.09,94.42l-6.49,4.39L106,99l.46,19h16.26l-.26-5.25-3.2-3.2H115l1.54-12.42,12.81-8.07,4.48-.77L156.62,66Z" transform="translate(-6.84 -8.51)"/><polygon points="329.44 20.79 330.96 18.74 330.44 18.24 328.21 18.12 329.44 20.79"/><polygon class="cls-2" points="320.44 12.61 320.19 10.64 317.12 9.97 318.94 12.65 320.44 12.61"/><path class="cls-3" d="M28,248.14a3.18,3.18,0,0,0,1.44,2.68,6,6,0,0,0,3.67,1.05H42a6.06,6.06,0,0,0,3.67-1.05,3.19,3.19,0,0,0,1.44-2.68v-30H67.74v34.39q0,5.84-5.78,10.06a22.73,22.73,0,0,1-13.78,4.22H26.4a22.72,22.72,0,0,1-13.78-4.22q-5.78-4.22-5.78-10.06V162.15q0-5.84,5.78-10.06a22.73,22.73,0,0,1,13.78-4.22H48.18A22.74,22.74,0,0,1,62,152.1q5.78,4.22,5.78,10.06v34.39H47.07v-30a3.2,3.2,0,0,0-1.44-2.68A6.07,6.07,0,0,0,42,162.8H33.07a6.06,6.06,0,0,0-3.67,1.05A3.19,3.19,0,0,0,28,166.53Z" transform="translate(-6.84 -8.51)"/><path class="cls-3" d="M123.74,236H106.85L102,266.79H81.74l21.11-118.92h25.56l21.33,118.92H129.07ZM109.3,221h12l-6-36.67Z" transform="translate(-6.84 -8.51)"/><path class="cls-3" d="M153.08,147.88h55.78v15.41H191.52v103.5H170.41V163.29H153.08Z" transform="translate(-6.84 -8.51)"/><path class="cls-3" d="M286.64,252.5q0,5.85-5.78,10.07a22.71,22.71,0,0,1-13.78,4.22H226V147.88h41.11a22.76,22.76,0,0,1,13.78,4.21q5.78,4.21,5.78,10v34.35a12.49,12.49,0,0,1-1,5.35,9.72,9.72,0,0,1-2.45,3.32,8.75,8.75,0,0,1-3,1.7,9.72,9.72,0,0,1-2.89.48,16.54,16.54,0,0,1,2.89.65,8.77,8.77,0,0,1,3,1.71,9.88,9.88,0,0,1,2.45,3.25,12,12,0,0,1,1,5.28Zm-39.56-89.7v37h13.33a6.09,6.09,0,0,0,3.67-1,3.18,3.18,0,0,0,1.44-2.67V166.52a3.18,3.18,0,0,0-1.44-2.67,6.09,6.09,0,0,0-3.67-1Zm0,51.92v37.15h13.33a6.05,6.05,0,0,0,3.67-1.05,3.19,3.19,0,0,0,1.44-2.68V218.45a3.2,3.2,0,0,0-1.44-2.68,6.07,6.07,0,0,0-3.67-1.05Z" transform="translate(-6.84 -8.51)"/><path class="cls-3" d="M329.31,266.79H308.2V147.88h21.11Z" transform="translate(-6.84 -8.51)"/><path class="cls-3" d="M346.42,147.88H402.2v15.41H384.87v103.5H363.75V163.29H346.42Z" transform="translate(-6.84 -8.51)"/></svg>